<svg xmlns="http://www.w3.org/2000/svg" viewBox="0 -10 100 170" role="img" aria-label="Nergal">
  <path fill="#c53030" d="
    M 50,-8 L 50,12 L 44,12 Z
    M 21,21 L 17,3 L 32,14 Z
    M 14,32 L 14,46 L 0,38 Z
    M 14,52 L 22,62 L 4,68 Z
    M 50,12 L 50,74 L 50,138 L 50,160 L 45,138 L 45,74 L 24,72 L 14,54 L 14,32 L 24,14 L 45,12 Z
  "/>
  <path fill="#761c19" d="
    M 50,-8 L 56,12 L 50,12 Z
    M 79,21 L 68,14 L 83,3 Z
    M 100,38 L 86,46 L 86,32 Z
    M 96,68 L 78,62 L 86,52 Z
    M 50,12 L 55,12 L 76,14 L 86,32 L 86,54 L 76,72 L 55,74 L 55,138 L 50,160 L 50,138 L 50,74 Z
  "/>
  <path fill="#f13f2e" d="
    M 24,14 L 45,12 L 50,12 L 50,46 L 46,40 L 46,36 L 24,28 L 14,32 Z
  "/>
  <path fill="#761c19" d="
    M 14,46 L 24,38 L 36,46 L 28,54 L 14,54 Z
  "/>
  <path fill="#cd0000" d="
    M 86,46 L 76,38 L 64,46 L 72,54 L 86,54 Z
  "/>
  <path fill="#3d0a08" d="
    M 76,14 L 55,12 L 50,12 L 50,46 L 54,40 L 54,36 L 76,28 L 86,32 Z
  "/>
  <path fill="#1a0a08" d="
    M 24,28 L 46,36 L 46,40 L 34,42 L 24,36 Z
    M 76,28 L 76,36 L 66,42 L 54,40 L 54,36 Z
    M 46,46 L 54,46 L 56,48 L 50,54 L 44,48 Z
    M 30,54 L 70,54 L 64,66 L 36,66 Z
  "/>
  <path fill="#f5e8c4" d="
    M 32,54 L 38,54 L 35,62 Z
    M 62,54 L 68,54 L 65,62 Z
  "/>
</svg>
